<svg width="11" height="11" viewBox="0 0 11 11" fill="none" xmlns="http://www.w3.org/2000/svg">
<path d="M10.277 7.82564C10.2226 7.78436 10.1664 7.74166 10.1138 7.69952C9.83467 7.47623 9.53768 7.27042 9.25047 7.07136C9.19086 7.03009 9.13126 6.98878 9.07187 6.94736C8.70396 6.6905 8.3732 6.56568 8.0607 6.56568C7.63981 6.56568 7.27284 6.79684 6.96996 7.25266C6.83578 7.45473 6.67298 7.55299 6.47235 7.55299C6.35372 7.55299 6.21892 7.51934 6.07175 7.45294C4.88422 6.91767 4.03625 6.09699 3.55133 5.01369C3.31693 4.49011 3.39292 4.14786 3.80546 3.86931C4.03972 3.71127 4.47577 3.41705 4.44488 2.85364C4.40991 2.21382 2.98964 0.288706 2.39122 0.0700544C2.13786 -0.0225543 1.87166 -0.0234172 1.59859 0.0678973C0.91066 0.297765 0.416994 0.701454 0.17083 1.23525C-0.0670519 1.75103 -0.0563098 2.35665 0.201898 2.98665C0.948348 4.80812 1.99782 6.39621 3.32127 7.70671C4.61668 8.98957 6.20886 10.0404 8.05354 10.8299C8.21981 10.901 8.39421 10.9398 8.52156 10.9681C8.56496 10.9778 8.60243 10.9861 8.62974 10.9935C8.64475 10.9976 8.66023 10.9998 8.67575 10.9999L8.69032 11C8.69036 11 8.69032 11 8.6904 11C9.55801 11 10.5998 10.212 10.9197 9.31356C11.2 8.52689 10.6882 8.13805 10.277 7.82564Z" fill="black"/>
</svg>
