<svg width="10" height="9" viewBox="0 0 10 9" fill="none" xmlns="http://www.w3.org/2000/svg">
<path d="M9.71224 5.45544C9.78435 5.16279 9.82272 4.85901 9.82272 4.54725C9.82272 2.20974 7.68733 0.31473 5.05318 0.31473C4.77509 0.31473 4.50261 0.33606 4.23751 0.37665C3.81125 0.13833 3.30693 0 2.76597 0C1.23835 0 0 1.09905 0 2.45448C0 2.9076 0.138909 3.33168 0.380182 3.69603C0.316931 3.97101 0.283699 4.25562 0.283699 4.54722C0.283699 6.88473 2.41905 8.77974 5.05318 8.77974C5.35155 8.77974 5.64339 8.75523 5.92652 8.70873C6.3159 8.89443 6.76112 9 7.23406 9C8.76172 9 10 7.90107 10 6.54552C10 6.15381 9.89611 5.78391 9.71224 5.45544ZM7.49934 6.56994C7.27869 6.84702 6.9527 7.06659 6.53033 7.22241C6.11205 7.3767 5.61064 7.45494 5.03989 7.45494C4.35485 7.45494 3.78052 7.34802 3.33225 7.137C3.0118 6.98337 2.74754 6.77532 2.54697 6.51861C2.34437 6.25926 2.2416 6.00192 2.2416 5.75379C2.2416 5.59869 2.30854 5.46423 2.44059 5.35419C2.57125 5.24511 2.73869 5.18985 2.93834 5.18985C3.10224 5.18985 3.24358 5.23353 3.35852 5.31969C3.46829 5.40225 3.5625 5.52441 3.63819 5.68218C3.72271 5.85396 3.81486 5.99901 3.91219 6.11325C4.00573 6.22314 4.14031 6.31551 4.31218 6.3876C4.4851 6.46026 4.71819 6.49707 5.0049 6.49707C5.39918 6.49707 5.72247 6.42237 5.96563 6.27501C6.20312 6.1311 6.3186 5.95836 6.3186 5.74689C6.3186 5.57979 6.25832 5.44848 6.13439 5.34543C6.00458 5.2377 5.83338 5.15385 5.62544 5.09634C5.40868 5.03637 5.1144 4.97169 4.75041 4.90407C4.25732 4.81035 3.83816 4.69917 3.50432 4.5735C3.50304 4.57305 3.50172 4.57257 3.50044 4.57206C3.15842 4.44297 2.88277 4.26396 2.68111 4.03998C2.47628 3.81252 2.3725 3.52716 2.3725 3.19173C2.3725 2.87199 2.48146 2.58378 2.69636 2.33517C2.90964 2.0883 3.22113 1.89645 3.62214 1.76481C4.01797 1.63491 4.48882 1.56909 5.02157 1.56909C5.44752 1.56909 5.82202 1.61274 6.13459 1.69899C6.44896 1.78587 6.71399 1.9032 6.92224 2.04756C7.132 2.193 7.28802 2.34861 7.38602 2.51022C7.48501 2.67345 7.53517 2.8359 7.53517 2.99304C7.53517 3.14427 7.46935 3.2817 7.33954 3.40149C7.20895 3.52197 7.04414 3.58314 6.84969 3.58314C6.67306 3.58314 6.53482 3.54489 6.43888 3.46947C6.3496 3.39945 6.25704 3.29028 6.15424 3.1332C6.03531 2.93268 5.89139 2.77461 5.72625 2.66322C5.56601 2.55504 5.29807 2.50011 4.92995 2.50011C4.58807 2.50011 4.31002 2.56101 4.10357 2.68113C3.90462 2.79687 3.80797 2.92959 3.80797 3.08682C3.80797 3.18327 3.83907 3.26385 3.90306 3.33321C3.97085 3.40668 4.06645 3.47121 4.1873 3.52485C4.31266 3.58077 4.44183 3.6252 4.57124 3.65691C4.70379 3.68955 4.9262 3.73791 5.2312 3.80043C5.55256 3.86166 5.85184 3.9291 6.12428 4.00128C6.17902 4.01577 6.2331 4.03044 6.28557 4.04532C6.60318 4.13553 6.87765 4.2468 7.10148 4.37598C7.32994 4.50801 7.51083 4.67757 7.6392 4.87998C7.76789 5.08311 7.83311 5.33394 7.83311 5.6253C7.83304 5.97405 7.72074 6.29181 7.49934 6.56994Z" fill="black"/>
</svg>
