<svg width="7" height="6" viewBox="0 0 7 6" fill="none" xmlns="http://www.w3.org/2000/svg">
<path d="M0.123641 2.87698L1.73658 3.46963L2.36089 5.4462C2.40084 5.5728 2.55808 5.61959 2.66245 5.53558L3.56153 4.81402C3.65578 4.73842 3.79001 4.73466 3.8885 4.80504L5.51012 5.96408C5.62177 6.04398 5.77995 5.98375 5.80795 5.85093L6.99588 0.225562C7.02644 0.0804777 6.88164 -0.040556 6.74131 0.0128743L0.121751 2.52683C-0.0416061 2.58885 -0.0401827 2.81654 0.123641 2.87698ZM2.26028 3.15414L5.41257 1.24281C5.46922 1.20856 5.52751 1.28397 5.47886 1.3284L2.8773 3.7091C2.78586 3.7929 2.72687 3.90504 2.71017 4.02676L2.62155 4.6733C2.60981 4.75963 2.48663 4.7682 2.46244 4.68465L2.12161 3.50567C2.08257 3.3712 2.13946 3.22756 2.26028 3.15414Z" fill="black"/>
</svg>
